<svg width="1024" height="1024" viewBox="0 0 1024 1024" fill="none" xmlns="http://www.w3.org/2000/svg">
<rect x="1024" y="1024" width="1024" height="1024" transform="rotate(-180 1024 1024)" fill="#131313"/>
<path d="M457.77 282.663C454.032 260.845 479.295 246.102 496.502 259.794L496.908 260.123L563.256 315.062C613.689 356.82 679.764 374.704 744.395 364.143L745.921 363.888L830.917 349.404C852.791 345.676 867.563 370.882 853.841 388.042L853.512 388.445L798.442 454.633C756.58 504.944 738.656 570.864 749.242 635.337L749.497 636.859L764.014 721.649C767.749 743.469 742.489 758.213 725.279 744.518L724.875 744.188L679.962 707.001C617.692 655.439 532.606 640.995 456.807 669.003L455.018 669.672L199.328 766.597C173.959 776.212 154.662 743.255 175.053 725.912L175.542 725.506L387.53 553.063C450.249 502.045 480.851 421.537 467.913 341.94L467.599 340.061L457.77 282.663Z" fill="url(#paint0_linear_273_404)"/>
<path d="M457.77 282.663C454.032 260.845 479.295 246.102 496.502 259.794L496.908 260.123L563.256 315.062C613.689 356.82 679.764 374.704 744.395 364.143L745.921 363.888L830.917 349.404C852.791 345.676 867.563 370.882 853.841 388.042L853.512 388.445L798.442 454.633C756.58 504.944 738.656 570.864 749.242 635.337L749.497 636.859L764.014 721.649C767.749 743.469 742.489 758.213 725.279 744.518L724.875 744.188L679.962 707.001C617.692 655.439 532.606 640.995 456.807 669.003L455.018 669.672L199.328 766.597C173.959 776.212 154.662 743.255 175.053 725.912L175.542 725.506L387.53 553.063C450.249 502.045 480.851 421.537 467.913 341.94L467.599 340.061L457.77 282.663Z" fill="white"/>
<path d="M457.77 282.663C454.032 260.845 479.295 246.102 496.502 259.794L496.908 260.123L563.256 315.062C613.689 356.82 679.764 374.704 744.395 364.143L745.921 363.888L830.917 349.404C852.791 345.676 867.563 370.882 853.841 388.042L853.512 388.445L798.442 454.633C756.58 504.944 738.656 570.864 749.242 635.337L749.497 636.859L764.014 721.649C767.749 743.469 742.489 758.213 725.279 744.518L724.875 744.188L679.962 707.001C617.692 655.439 532.606 640.995 456.807 669.003L455.018 669.672L199.328 766.597C173.959 776.212 154.662 743.255 175.053 725.912L175.542 725.506L387.53 553.063C450.249 502.045 480.851 421.537 467.913 341.94L467.599 340.061L457.77 282.663Z" stroke="#989898" style="mix-blend-mode:plus-lighter"/>
<defs>
<linearGradient id="paint0_linear_273_404" x1="780.188" y1="354.701" x2="233.228" y2="997.201" gradientUnits="userSpaceOnUse">
<stop stop-opacity="0"/>
<stop offset="0.19" stop-color="#771DFD"/>
<stop offset="0.47" stop-color="#DB00FF"/>
<stop offset="0.64" stop-color="#FF8854"/>
<stop offset="0.8" stop-color="#FFC1C1"/>
<stop offset="1" stop-opacity="0"/>
</linearGradient>
</defs>
</svg>
